<?xml version="1.0" ?><!DOCTYPE svg  PUBLIC '-//W3C//DTD SVG 1.1//EN'  'http://www.w3.org/Graphics/SVG/1.1/DTD/svg11.dtd'><svg height="512px" id="Icons" style="enable-background:new 0 0 512 512;" version="1.1" viewBox="0 0 512 512" width="512px" xml:space="preserve" xmlns="http://www.w3.org/2000/svg" xmlns:xlink="http://www.w3.org/1999/xlink"><path d="M176,320c-17.625,0-32-14.375-32-32v-48c0-17.625,14.375-32,32-32h144c17.625,0,32,14.375,32,32v48  c0,17.625-14.375,32-32,32H176z M448,320c17.625,0,32-14.375,32-32v-48c0-17.625-14.375-32-32-32h-48c-17.625,0-32,14.375-32,32v48  c0,17.625,14.375,32,32,32H448z M96,320c17.625,0,32-14.375,32-32v-48c0-17.625-14.375-32-32-32H64c-17.625,0-32,14.375-32,32v48  c0,17.625,14.375,32,32,32H96z M440,448c20.5,0,40-19.5,40-40v-40c0-17.625-14.375-32-32-32H272c-17.625,0-32,14.375-32,32v48  c0,17.625,14.375,32,32,32H440z M192,448c17.625,0,32-14.375,32-32v-48c0-17.625-14.375-32-32-32H64c-17.625,0-32,14.375-32,32v40  c0,20.5,19.5,40,40,40H192z M72,80c-20.5,0-40,19.5-40,40v40c0,17.625,14.375,32,32,32h176c17.625,0,32-14.375,32-32v-48  c0-17.625-14.375-32-32-32H72z M320,80c-17.625,0-32,14.375-32,32v48c0,17.625,14.375,32,32,32h128c17.625,0,32-14.375,32-32v-40  c0-20.5-19.5-40-40-40H320z" style="fill:#525966;"/></svg>